<svg xmlns="http://www.w3.org/2000/svg" viewBox="64 52 172 186"><path d="M150 55Q95 55,75 90Q55 125,60 165Q65 195,85 215Q110 235,150 235Q190 235,215 215Q235 195,240 165Q245 125,225 90Q205 55,150 55Z" fill="#f87171" stroke="#000" stroke-width="4"/><circle cx="120" cy="125" r="16" fill="#fff" stroke="#333" stroke-width="2"/><circle cx="122" cy="125" r="8" fill="#450a0a"/><circle cx="124" cy="122" r="3" fill="#fff"/><circle cx="180" cy="125" r="16" fill="#fff" stroke="#333" stroke-width="2"/><circle cx="182" cy="125" r="8" fill="#450a0a"/><circle cx="184" cy="122" r="3" fill="#fff"/><path d="M135 150Q150 160,165 150" stroke="#450a0a" stroke-width="2.5" fill="none" stroke-linecap="round"/><ellipse cx="100" cy="140" rx="12" ry="8" fill="rgba(255,180,200,0.4)"/><ellipse cx="200" cy="140" rx="12" ry="8" fill="rgba(255,180,200,0.4)"/><circle cx="150" cy="175" r="40" fill="#fff" stroke="#000" stroke-width="3"/><g transform="translate(150,175)"><rect x="-20" y="-10" width="40" height="35" fill="#ef4444" stroke="#b91c1c" stroke-width="2" rx="2"/><rect x="-25" y="-15" width="50" height="6" fill="#dc2626" stroke="#b91c1c" stroke-width="1.5" rx="1"/><rect x="-12" y="-20" width="24" height="5" fill="#dc2626" stroke="#b91c1c" stroke-width="1.5" rx="1"/><line x1="-10" y1="-5" x2="-10" y2="20" stroke="#b91c1c" stroke-width="2"/><line x1="-3" y1="-5" x2="-3" y2="20" stroke="#b91c1c" stroke-width="2"/><line x1="4" y1="-5" x2="4" y2="20" stroke="#b91c1c" stroke-width="2"/><line x1="11" y1="-5" x2="11" y2="20" stroke="#b91c1c" stroke-width="2"/></g><ellipse cx="105" cy="185" rx="20" ry="15" fill="#f87171" stroke="#000" stroke-width="4"/><ellipse cx="195" cy="185" rx="20" ry="15" fill="#f87171" stroke="#000" stroke-width="4"/></svg>
