<svg xmlns="http://www.w3.org/2000/svg" viewBox="64 52 172 186"><path d="M150 55Q95 55,75 90Q55 125,60 165Q65 195,85 215Q110 235,150 235Q190 235,215 215Q235 195,240 165Q245 125,225 90Q205 55,150 55Z" fill="#a3a3a3" stroke="#000" stroke-width="4"/><circle cx="120" cy="125" r="16" fill="#fff" stroke="#333" stroke-width="2"/><circle cx="122" cy="125" r="8" fill="#171717"/><circle cx="124" cy="122" r="3" fill="#fff"/><circle cx="180" cy="125" r="16" fill="#fff" stroke="#333" stroke-width="2"/><circle cx="182" cy="125" r="8" fill="#171717"/><circle cx="184" cy="122" r="3" fill="#fff"/><path d="M135 150Q150 160,165 150" stroke="#171717" stroke-width="2.5" fill="none" stroke-linecap="round"/><ellipse cx="100" cy="140" rx="12" ry="8" fill="rgba(255,180,200,0.4)"/><ellipse cx="200" cy="140" rx="12" ry="8" fill="rgba(255,180,200,0.4)"/><circle cx="150" cy="175" r="40" fill="#fff" stroke="#000" stroke-width="3"/><g transform="translate(150,175)"><rect x="-22" y="-22" width="44" height="44" fill="#737373" stroke="#525252" stroke-width="2" rx="3"/><rect x="-6" y="-14" width="12" height="28" rx="2" fill="#fff"/><rect x="-14" y="-6" width="28" height="12" rx="2" fill="#fff"/></g><ellipse cx="105" cy="185" rx="20" ry="15" fill="#a3a3a3" stroke="#000" stroke-width="4"/><ellipse cx="195" cy="185" rx="20" ry="15" fill="#a3a3a3" stroke="#000" stroke-width="4"/></svg>
