<svg xmlns="http://www.w3.org/2000/svg" viewBox="64 52 172 186"><path d="M150 55Q95 55,75 90Q55 125,60 165Q65 195,85 215Q110 235,150 235Q190 235,215 215Q235 195,240 165Q245 125,225 90Q205 55,150 55Z" fill="#f5f5f5" stroke="#000" stroke-width="4"/><circle cx="120" cy="125" r="16" fill="#fff" stroke="#333" stroke-width="2"/><circle cx="122" cy="125" r="8" fill="#171717"/><circle cx="124" cy="122" r="3" fill="#fff"/><circle cx="180" cy="125" r="16" fill="#fff" stroke="#333" stroke-width="2"/><circle cx="182" cy="125" r="8" fill="#171717"/><circle cx="184" cy="122" r="3" fill="#fff"/><path d="M135 150Q150 160,165 150" stroke="#171717" stroke-width="2.5" fill="none" stroke-linecap="round"/><ellipse cx="100" cy="140" rx="12" ry="8" fill="rgba(255,180,200,0.4)"/><ellipse cx="200" cy="140" rx="12" ry="8" fill="rgba(255,180,200,0.4)"/><circle cx="150" cy="175" r="40" fill="#fff" stroke="#000" stroke-width="3"/><g transform="translate(150,175)"><rect x="-22" y="-22" width="44" height="44" fill="#e5e5e5" stroke="#737373" stroke-width="2" rx="3"/><path d="M-12 -10L-12 10L-4 10L4 16L4 -16L-4 -10Z" fill="#404040"/><path d="M8 -12Q14 -6,14 0Q14 6,8 12" fill="none" stroke="#404040" stroke-width="2.5" stroke-linecap="round"/><path d="M14 -8Q20 -2,20 4Q20 10,14 16" fill="none" stroke="#404040" stroke-width="2.5" stroke-linecap="round"/></g><ellipse cx="105" cy="185" rx="20" ry="15" fill="#f5f5f5" stroke="#000" stroke-width="4"/><ellipse cx="195" cy="185" rx="20" ry="15" fill="#f5f5f5" stroke="#000" stroke-width="4"/></svg>
