<svg xmlns="http://www.w3.org/2000/svg" viewBox="64 52 172 186"><path d="M150 55Q95 55,75 90Q55 125,60 165Q65 195,85 215Q110 235,150 235Q190 235,215 215Q235 195,240 165Q245 125,225 90Q205 55,150 55Z" fill="#f9a8d4" stroke="#000" stroke-width="4"/><circle cx="120" cy="125" r="16" fill="#fff" stroke="#333" stroke-width="2"/><circle cx="122" cy="125" r="8" fill="#4a044e"/><circle cx="124" cy="122" r="3" fill="#fff"/><circle cx="180" cy="125" r="16" fill="#fff" stroke="#333" stroke-width="2"/><circle cx="182" cy="125" r="8" fill="#4a044e"/><circle cx="184" cy="122" r="3" fill="#fff"/><path d="M135 150Q150 160,165 150" stroke="#4a044e" stroke-width="2.5" fill="none" stroke-linecap="round"/><ellipse cx="100" cy="140" rx="12" ry="8" fill="rgba(255,180,200,0.4)"/><ellipse cx="200" cy="140" rx="12" ry="8" fill="rgba(255,180,200,0.4)"/><circle cx="150" cy="175" r="40" fill="#fff" stroke="#000" stroke-width="3"/><g transform="translate(150,175)"><path d="M-18 -18L18 -18L18 18L-18 18Z" fill="#ec4899" stroke="#be185d" stroke-width="2" rx="3"/><path d="M-8 -10L12 0L-8 10Z" fill="#fff"/><rect x="-10" y="-2" width="18" height="4" fill="#fff"/></g><ellipse cx="105" cy="185" rx="20" ry="15" fill="#f9a8d4" stroke="#000" stroke-width="4"/><ellipse cx="195" cy="185" rx="20" ry="15" fill="#f9a8d4" stroke="#000" stroke-width="4"/></svg>
